PathFileType	4	(X/Y/Z)	s06c0403.trc
DataRate	CameraRate	NumFrames	NumMarkers	Units	OrigDataRate	OrigDataStartFrame	OrigNumFrames
200	200	7	48	mm	200	0	2000
Frame#	Time	racr			lacr			c7			jug			rlel			rdr			llel			ldr			s2			lic			ric			lasi			rasi			rpsi			lpsi			rgt			lgt			rth1			rth2			rth3			rth4			rlfc			rmfc			rsh1			rsh2			rsh3			rsh4			rlmal			rcal			rtoe			rmt5			lth1			lth2			lth4			lth3			llfc			lmfc			llmal			lcal			lmt5			lsh1			lsh2			lsh3			lsh4			ltoe			SBIKE			LBIKE			RBIKE			
		X1	Y1	Z1	X2	Y2	Z2	X3	Y3	Z3	X4	Y4	Z4	X5	Y5	Z5	X6	Y6	Z6	X7	Y7	Z7	X8	Y8	Z8	X9	Y9	Z9	X10	Y10	Z10	X11	Y11	Z11	X12	Y12	Z12	X13	Y13	Z13	X14	Y14	Z14	X15	Y15	Z15	X16	Y16	Z16	X17	Y17	Z17	X18	Y18	Z18	X19	Y19	Z19	X20	Y20	Z20	X21	Y21	Z21	X22	Y22	Z22	X23	Y23	Z23	X24	Y24	Z24	X25	Y25	Z25	X26	Y26	Z26	X27	Y27	Z27	X28	Y28	Z28	X29	Y29	Z29	X30	Y30	Z30	X31	Y31	Z31	X32	Y32	Z32	X33	Y33	Z33	X34	Y34	Z34	X35	Y35	Z35	X36	Y36	Z36	X37	Y37	Z37	X38	Y38	Z38	X39	Y39	Z39	X40	Y40	Z40	X41	Y41	Z41	X42	Y42	Z42	X43	Y43	Z43	X44	Y44	Z44	X45	Y45	Z45	X46	Y46	Z46	X47	Y47	Z47	X48	Y48	Z48	
0	0.0000	442.527439	1333.012807	-58.200152	458.933475	1330.235605	-394.793774	438.654874	1436.306503	-224.485402	462.683907	1280.319102	-220.265000	471.267098	1068.423555	23.950649	673.838608	938.356294	-36.097855	465.853307	1061.905832	-470.251791	632.154603	833.327107	-431.474111	-41.576259	1148.558148	-219.142186	136.633774	1097.241675	-380.984831	117.944104	1105.387715	-46.158414	142.379996	1034.896326	-347.464429	135.448921	1049.363337	-76.523228	-6.046818	1179.235299	-184.197989	-5.837448	1177.946431	-245.732853	68.831362	1045.425835	-7.828462	91.489714	1035.000667	-411.044383	163.588095	963.079915	-14.936542	248.314341	930.191663	-20.458339	301.918229	862.106061	-25.450433	266.128665	959.184005	-38.027628	362.190002	773.911234	-47.923699	355.625136	747.777231	-157.937399	330.356394	656.127173	-18.367311	325.515891	570.035149	-37.972139	281.860713	494.772376	-38.025093	345.123937	567.992174	-72.129206	252.760888	412.864632	-42.252739	191.301088	375.188223	-90.745878	466.549010	389.389672	-99.699242	375.733020	356.819211	-26.281307	135.671212	925.532664	-415.942721	203.867681	873.396978	-407.685653	232.088145	894.229990	-394.855201	237.475813	789.869843	-401.738659	265.152969	679.613047	-374.975440	258.953510	662.920107	-258.380505	4.024558	412.372337	-378.123605	-71.921221	425.398125	-333.832824	73.984557	289.392517	-398.046718	198.204330	597.362705	-399.786567	154.410175	523.982169	-382.320677	78.339818	476.975360	-385.774245	171.224992	511.847432	-349.300796	149.276618	251.868210	-336.778401	-204.642439	864.951112	-211.169025	-51.109232	80.254495	-411.065919	-50.580026	79.577074	-13.610367	
1	0.0050	442.489005	1333.007447	-58.226168	458.920987	1330.224367	-394.821911	438.614477	1436.315483	-224.477761	462.656872	1280.306460	-220.286392	471.265002	1068.421880	23.927063	673.827412	938.363818	-36.089149	465.818825	1061.870064	-470.251971	632.145328	833.418765	-431.455457	-41.602625	1148.544055	-219.134677	136.586739	1097.249682	-380.976773	117.920270	1105.449661	-46.138424	142.344562	1034.910226	-347.493530	135.506594	1049.461363	-76.522833	-6.065268	1179.227779	-184.206156	-5.861691	1177.937376	-245.735255	68.849425	1045.388554	-7.847660	91.437246	1035.000474	-411.038618	163.592140	963.051667	-14.921617	248.308071	930.136503	-20.463328	301.927968	862.052739	-25.441017	266.130603	959.132480	-38.022067	362.194773	773.858685	-47.896087	355.623256	747.722206	-157.920509	330.343130	656.088935	-18.350223	325.505970	569.991154	-37.970848	281.845343	494.736950	-38.027955	345.107026	567.929235	-72.116890	252.739097	412.806613	-42.256730	191.297825	375.136292	-90.741334	466.544726	389.384187	-99.705233	375.746562	356.788259	-26.288961	135.618105	925.544927	-415.950070	203.839505	873.422792	-407.733883	232.061886	894.251732	-394.880927	237.468596	789.886444	-401.779664	265.161333	679.638370	-375.037625	258.973146	662.922784	-258.415566	4.030152	412.401410	-378.128121	-71.923779	425.415935	-333.827283	73.961643	289.414316	-398.055832	198.210222	597.378843	-399.817853	154.418780	523.985226	-382.340607	78.328299	476.989921	-385.797727	171.228526	511.847604	-349.329261	149.268328	251.864180	-336.761483	-204.647625	864.960732	-211.164870	-51.101230	80.258197	-411.074260	-50.614443	79.639103	-13.607566	
2	0.0100	442.474742	1332.987681	-58.252452	458.897405	1330.203992	-394.834343	438.588836	1436.324785	-224.515902	462.586324	1280.334793	-220.298623	471.258834	1068.417468	23.897877	673.833109	938.371016	-36.075903	465.789023	1061.834109	-470.245757	632.159221	833.416698	-431.468276	-41.620523	1148.524362	-219.125475	136.528704	1097.260188	-380.989493	117.927612	1105.442992	-46.147052	142.308310	1034.922135	-347.458649	135.509834	1049.455274	-76.534862	-6.084412	1179.213201	-184.184629	-5.894619	1177.937299	-245.716539	68.856245	1045.378648	-7.849715	91.406060	1035.005825	-411.054477	163.589842	963.019546	-14.923411	248.310036	930.073791	-20.466644	301.915008	861.981550	-25.463974	266.139107	959.085852	-38.028661	362.243655	773.851224	-47.863654	355.607577	747.657493	-157.901757	330.322367	656.035112	-18.355864	325.480392	569.953606	-37.978936	281.831633	494.673011	-38.014843	345.083547	567.887831	-72.132956	252.713027	412.773911	-42.248443	191.258198	375.098716	-90.725232	466.509852	389.399882	-99.707546	375.732852	356.788923	-26.276064	135.578513	925.565058	-415.971732	203.810018	873.446363	-407.766716	232.027553	894.282635	-394.906088	237.455137	789.918160	-401.850456	265.159391	679.646792	-375.092366	259.011347	662.947610	-258.465038	4.043126	412.405641	-378.119147	-71.898779	425.436742	-333.824617	73.981809	289.401113	-398.051197	198.198684	597.389747	-399.847558	154.429212	523.998804	-382.364716	78.353235	476.992740	-385.806711	171.246296	511.853663	-349.347939	149.273915	251.846475	-336.772264	-204.656105	864.963254	-211.176255	-51.102324	80.274046	-411.072208	-50.720334	79.917381	-13.418635	
3	0.0150	443.258542	1333.044876	-58.094874	458.897543	1330.189546	-394.879961	438.554373	1436.332994	-224.553495	462.566268	1280.340308	-220.337079	471.566541	1068.337577	23.986979	673.841322	938.370242	-36.066901	465.770133	1061.806524	-470.245415	632.162699	833.392413	-431.467469	-42.510217	1149.361511	-216.478638	136.500371	1097.264012	-380.985034	117.945595	1105.386212	-46.190022	142.276341	1034.959971	-347.513895	135.542175	1049.411538	-76.593321	-6.254469	1179.138399	-184.222573	-5.890610	1177.914629	-245.699050	68.838891	1045.293317	-7.918428	91.379443	1035.076008	-411.055337	163.598227	962.995384	-14.915723	248.198541	929.890529	-20.525055	301.917071	861.955068	-25.449536	266.040509	958.700489	-38.300156	362.156586	773.765799	-47.881390	355.733872	747.453297	-157.966923	330.150149	655.930294	-18.228554	325.321863	569.905448	-38.142868	281.808109	494.662930	-38.005732	345.096166	567.679372	-72.217529	253.246351	412.229106	-42.579987	190.174083	375.931190	-90.187848	466.486138	389.443128	-99.697055	375.717851	356.788031	-26.280338	135.543204	925.569364	-415.961104	204.053812	872.743697	-407.510604	231.951089	894.209638	-394.776356	237.396776	789.867043	-401.881120	265.242275	679.528611	-375.203461	259.017344	662.966699	-258.500837	4.086265	412.404546	-378.115315	-71.850818	425.466976	-333.839179	73.985931	289.388679	-398.049334	198.355271	597.314968	-399.930713	154.341904	523.876367	-382.419366	78.166998	477.755455	-386.995327	170.618841	511.236451	-348.531704	149.274235	251.818344	-336.776772	-204.698915	864.931281	-211.263977	-51.103923	80.274609	-411.063001	-50.704574	79.904176	-13.429492	
4	0.0200	442.938935	1333.468750	-58.035130	458.766418	1330.351869	-394.801480	438.586535	1436.408830	-224.522779	462.438746	1280.722578	-220.302183	471.327969	1068.673038	24.083876	673.819057	938.592896	-35.869337	465.603271	1061.866874	-470.185539	632.182640	833.497188	-431.463066	-42.656074	1149.352779	-216.417670	136.509209	1097.094056	-381.152593	117.924214	1105.635611	-46.257177	142.321307	1034.979725	-347.407059	135.476589	1049.560679	-76.501044	-6.332031	1178.733352	-184.033505	-6.168922	1177.848937	-245.578137	68.743837	1045.616184	-7.714639	91.207136	1035.373873	-411.026565	163.585069	963.320468	-14.764332	248.112233	930.147701	-20.494341	302.020110	862.314149	-24.267678	266.049191	958.694772	-38.386529	361.991298	773.967983	-47.686317	355.515445	747.719100	-157.708194	329.789465	656.224364	-17.627670	325.243411	570.129953	-38.004346	281.595854	494.804269	-37.758732	345.020262	567.961083	-72.186469	253.022019	412.536186	-42.408060	190.095937	375.867891	-90.372675	466.436721	389.744796	-99.573996	375.556626	357.132135	-26.199808	135.408334	925.620342	-415.884568	204.037112	872.755077	-407.630390	231.886724	894.275026	-394.937938	237.421282	789.918912	-402.100728	265.021167	679.807684	-375.119214	258.795498	663.371423	-257.907150	4.156765	412.465427	-378.265618	-71.770241	425.500956	-333.752385	74.002985	289.488610	-398.282853	198.112074	597.634537	-399.884097	154.133371	524.210406	-382.331423	77.973160	477.841733	-387.223375	170.885799	511.379629	-348.792296	149.335116	252.101340	-337.110343	-204.673252	864.873082	-211.329041	-51.220950	80.521066	-411.033512	-50.857452	80.308560	-13.109283	
5	0.0250	442.868773	1333.536511	-58.074801	458.728211	1330.352483	-394.842038	438.556487	1436.410660	-224.536528	462.400265	1280.760024	-220.373742	471.314799	1068.726337	24.078789	673.850015	938.640637	-35.854400	465.631847	1061.942368	-470.302223	632.211055	833.386134	-431.473402	-42.686439	1149.329065	-216.380316	136.404743	1097.342666	-381.035038	117.934792	1105.579088	-46.298618	142.296118	1035.017602	-347.444035	135.342093	1049.470037	-76.563017	-6.125918	1179.175264	-184.222639	-6.127755	1178.136232	-245.434627	68.755101	1045.637533	-7.675215	91.156136	1035.420859	-411.055124	163.593214	963.334819	-14.763485	248.091908	930.170283	-20.494443	301.933995	862.255186	-25.366742	266.049241	958.690291	-38.403072	361.991800	774.047651	-47.752693	355.484231	747.752319	-157.720091	329.873643	656.205950	-18.130676	325.203221	570.149513	-38.014778	281.627183	494.901442	-37.928761	344.984102	567.971728	-72.217856	252.968799	412.436389	-42.504102	190.122971	376.004364	-90.062361	466.392249	389.825691	-99.561196	375.451813	357.170700	-26.132614	135.380259	925.752594	-415.885805	203.998501	872.815947	-407.607948	231.844357	894.338725	-394.919957	237.325891	789.995474	-402.016124	265.108921	679.846239	-375.319378	258.736258	663.310171	-258.443303	4.139992	412.383909	-378.211654	-71.690150	425.432414	-333.841043	73.958961	289.391690	-398.224468	198.161614	597.646015	-400.020196	154.155340	524.234019	-382.366359	78.452320	477.587423	-386.719213	170.942669	511.406630	-348.864667	149.192242	251.820093	-336.961582	-204.653069	864.923149	-211.272434	-51.020613	80.300375	-411.087610	-50.836017	80.038230	-13.690860	
6	0.0300	442.811068	1333.559363	-58.126599	458.696375	1330.340757	-394.870167	438.534241	1436.410415	-224.577625	462.349143	1280.782689	-220.432847	471.303300	1068.781644	24.066182	673.867121	938.669270	-35.839851	465.616706	1061.953459	-470.331482	632.164454	833.380309	-431.442238	-42.744300	1149.340934	-216.322518	136.365458	1097.383161	-381.052395	117.936505	1105.596547	-46.325618	142.271566	1035.033613	-347.428230	135.336731	1049.486259	-76.591744	-6.119516	1179.197556	-184.227809	-6.171796	1178.158739	-245.374853	68.781279	1045.632559	-7.658100	91.101724	1035.435061	-411.077724	163.592672	963.338185	-14.755652	248.103496	930.162161	-20.522187	301.942534	862.262623	-25.436005	266.042021	958.688362	-38.427661	361.970825	774.079447	-47.759857	355.424726	747.780204	-157.741455	329.857584	656.224438	-18.179011	325.188321	570.172638	-38.022442	281.590678	494.914557	-37.946727	344.932812	567.982782	-72.230728	252.913941	412.456819	-42.502603	190.550549	375.704937	-90.170259	466.366289	389.925354	-99.585840	375.421815	357.223884	-26.102724	135.351745	925.780764	-415.902562	203.976308	872.831503	-407.636078	231.803691	894.370381	-394.949630	237.314436	790.032934	-402.038375	265.096478	679.884851	-375.383301	258.748567	663.344743	-258.488072	4.198636	412.327934	-378.215646	-71.624811	425.420850	-333.864610	73.952684	289.346164	-398.227223	198.168208	597.655608	-400.087282	154.200402	524.265835	-382.398554	78.535602	477.549077	-386.676596	171.004835	511.444475	-348.912123	149.169733	251.730770	-336.964848	-204.660131	864.916932	-211.257812	-51.015466	80.290288	-411.108105	-50.847274	80.040702	-13.721530	
